name C:\Users\u0101727\Documents\MyRepositories\paper-ad\predictivesimulations_2d/Results/PredSim_2D/IK_c19.mot
datacolumns 11
datarows 47
range 0.00000000 0.44131234
endheader
time	pelvis_tilt	pelvis_tx	pelvis_ty	hip_flexion_l	hip_flexion_r	knee_angle_l	knee_angle_r	ankle_angle_l	ankle_angle_r	lumbar_extension	
          0.00000000	        -15.15374447	          0.00000000	          0.88362392	          0.97595057	         38.08598616	        -16.23282685	        -10.56508021	          5.76770035	         13.83998831	          9.66187276	
          0.00959375	        -15.11570671	          0.01477797	          0.88283731	          0.88222480	         37.60141430	        -17.72638490	         -9.95973482	          4.56712482	         13.39170936	          9.75875556	
          0.01918749	        -15.06662186	          0.02981941	          0.88199970	          0.86723906	         37.02165162	        -19.38742979	         -9.64042936	          3.26271464	         12.89131487	          9.86868336	
          0.02878124	        -15.00904670	          0.04510730	          0.88113449	          0.93822402	         36.27862187	        -21.21284767	         -9.72773251	          1.83450964	         12.33675183	          9.99562915	
          0.03837499	        -14.95119409	          0.06045573	          0.88036862	          1.09981572	         35.41546708	        -23.18404599	        -10.04192544	          0.36788955	         11.76736704	         10.13016523	
          0.04796873	        -14.90404042	          0.07552400	          0.87993162	          1.37886778	         34.55737934	        -25.20861960	        -10.32203425	         -0.91569319	         11.21710603	         10.24905065	
          0.05756248	        -14.87614573	          0.09006500	          0.88008531	          1.80365097	         33.74162296	        -27.14638015	        -10.58022695	         -1.91822960	         10.68583665	         10.33836730	
          0.06715623	        -14.86984891	          0.10401575	          0.88098554	          2.37008088	         32.97066229	        -28.93468062	        -10.81139720	         -2.66903056	         10.18821981	         10.39697071	
          0.07674997	        -14.88045964	          0.11745952	          0.88259147	          3.06137066	         32.22597678	        -30.59424677	        -11.00356878	         -3.17752498	          9.74054307	         10.43100525	
          0.08634372	        -14.90138582	          0.13052054	          0.88469325	          3.85697491	         31.48645234	        -32.15418548	        -11.14782057	         -3.45646159	          9.35427688	         10.44749610	
          0.09593746	        -14.92726454	          0.14330631	          0.88705826	          4.74132900	         30.73527522	        -33.63207554	        -11.23732198	         -3.52141163	          9.03570073	         10.45175914	
          0.10553121	        -14.95465665	          0.15589106	          0.88950376	          5.70240261	         29.96299907	        -35.03637391	        -11.27015927	         -3.38740174	          8.78644118	         10.44698834	
          0.11512496	        -14.98166846	          0.16832176	          0.89190613	          6.73119267	         29.16510180	        -36.36839063	        -11.24677298	         -3.07072938	          8.60546921	         10.43494033	
          0.12471870	        -15.00733885	          0.18062847	          0.89418615	          7.82029520	         28.34003549	        -37.62502618	        -11.16916504	         -2.58813503	          8.49014114	         10.41662582	
          0.13431245	        -15.03117841	          0.19283150	          0.89629342	          8.96353319	         27.48817310	        -38.80140444	        -11.04081088	         -1.95648447	          8.43670734	         10.39266005	
          0.14390620	        -15.05292015	          0.20494593	          0.89819552	         10.15535690	         26.61116223	        -39.89144131	        -10.86656325	         -1.19271186	          8.44062675	         10.36349433	
          0.15349994	        -15.07239249	          0.21698413	          0.89987147	         11.39042652	         25.71160269	        -40.88834854	        -10.65243884	         -0.31397217	          8.49674691	         10.32953307	
          0.16309369	        -15.08947143	          0.22895705	          0.90130864	         12.66329316	         24.79280074	        -41.78499836	        -10.40548106	          0.66234263	          8.59946256	         10.29119499	
          0.17268744	        -15.10406942	          0.24087414	          0.90250215	         13.96860767	         23.85873689	        -42.57376050	        -10.13370867	          1.71866143	          8.74295823	         10.24887004	
          0.18228118	        -15.11617213	          0.25274301	          0.90345532	         15.30137237	         22.91384879	        -43.24642685	         -9.84490835	          2.83730969	          8.92137549	         10.20287591	
          0.19187493	        -15.12590370	          0.26457098	          0.90417873	         16.65557765	         21.96202362	        -43.79552061	         -9.54614888	          4.00046774	          9.12821700	         10.15369186	
          0.20146868	        -15.13342666	          0.27636426	          0.90468940	         18.02542306	         21.00744298	        -44.21332978	         -9.24499048	          5.19028626	          9.35580561	         10.10174302	
          0.21106242	        -15.13888216	          0.28812839	          0.90500807	         19.40540487	         20.05467951	        -44.49205947	         -8.94929122	          6.38894180	          9.59610598	         10.04737208	
          0.22065617	        -15.14241616	          0.29986936	          0.90515617	         20.78902754	         19.10852891	        -44.62476416	         -8.66742250	          7.57863682	          9.84117904	          9.99095864	
          0.23024992	        -15.14424896	          0.31159423	          0.90515397	         22.16939024	         18.17220974	        -44.60577204	         -8.40497663	          8.74169689	         10.08368264	          9.93303531	
          0.23984366	        -15.14469669	          0.32331128	          0.90501957	         23.53962831	         17.24654289	        -44.43100669	         -8.16321247	          9.86075173	         10.31696205	          9.87433934	
          0.24943741	        -15.14404081	          0.33502939	          0.90476846	         24.89174992	         16.33294561	        -44.09863075	         -7.94500580	         10.91905510	         10.53421376	          9.81561463	
          0.25903115	        -15.14252789	          0.34675667	          0.90441377	         26.21787520	         15.43356247	        -43.60759279	         -7.75393409	         11.90116462	         10.72936876	          9.75747384	
          0.26862490	        -15.14040049	          0.35850216	          0.90396621	         27.50922062	         14.54994890	        -42.96086556	         -7.59294960	         12.79366975	         10.89781813	          9.70065070	
          0.27821865	        -15.13791629	          0.37027443	          0.90343487	         28.75766335	         13.68305192	        -42.16311895	         -7.46419776	         13.58632512	         11.03661199	          9.64584773	
          0.28781239	        -15.13533793	          0.38207995	          0.90282784	         29.95711786	         12.83375927	        -41.21856642	         -7.36874590	         14.27304532	         11.14463577	          9.59353587	
          0.29740614	        -15.13290588	          0.39392508	          0.90215163	         31.10183819	         12.00274737	        -40.13395231	         -7.30822095	         14.85221325	         11.22261491	          9.54416369	
          0.30699989	        -15.13084328	          0.40581418	          0.90141156	         32.18888129	         11.19034119	        -38.91477635	         -7.28353800	         15.32665311	         11.27333799	          9.49792106	
          0.31659363	        -15.12936054	          0.41775083	          0.90061142	         33.21690066	         10.39643514	        -37.56601069	         -7.29509610	         15.70264687	         11.30124168	          9.45487044	
          0.32618738	        -15.12867629	          0.42973841	          0.89975313	         34.18528599	          9.62077841	        -36.09305184	         -7.34291555	         15.98856563	         11.31164740	          9.41499305	
          0.33578113	        -15.12907199	          0.44178145	          0.89883684	         35.09255887	          8.86275737	        -34.50341970	         -7.42642897	         16.19355681	         11.30984051	          9.37836374	
          0.34537487	        -15.13093753	          0.45388643	          0.89786138	         35.93525251	          8.12131678	        -32.80487922	         -7.54456827	         16.32674029	         11.29941997	          9.34529253	
          0.35496862	        -15.13459410	          0.46606152	          0.89682561	         36.70877429	          7.39610524	        -31.00888448	         -7.69762286	         16.39690115	         11.28117443	          9.31616681	
          0.36456237	        -15.14011079	          0.47831871	          0.89573220	         37.40642985	          6.68801411	        -29.14161179	         -7.88925701	         16.41217650	         11.25348942	          9.29157788	
          0.37415611	        -15.14751466	          0.49067628	          0.89459357	         38.01528482	          5.99907452	        -27.23727100	         -8.12570982	         16.37985238	         11.21033113	          9.27282931	
          0.38374986	        -15.15682623	          0.50315573	          0.89343147	         38.51953204	          5.33245851	        -25.32808242	         -8.41413408	         16.30631979	         11.13926501	          9.26164413	
          0.39334361	        -15.16772624	          0.51577589	          0.89226840	         38.90973110	          4.69258773	        -23.44190838	         -8.76302510	         16.19697036	         11.02399773	          9.25920899	
          0.40293735	        -15.17941911	          0.52855131	          0.89112233	         39.18574685	          4.08473261	        -21.60061791	         -9.18224141	         16.05593733	         10.84799966	          9.26592932	
          0.41253110	        -15.19069351	          0.54149488	          0.89000753	         39.35446407	          3.51417256	        -19.82585823	         -9.68208907	         15.88582824	         10.59700076	          9.28173474	
          0.42212484	        -15.20032934	          0.55462044	          0.88893617	         39.42310366	          2.98578770	        -18.13244519	        -10.27223959	         15.68784735	         10.25815330	          9.30671585	
          0.43171859	        -15.20718337	          0.56794245	          0.88791741	         39.39848468	          2.50401421	        -16.53214796	        -10.96126455	         15.46189387	          9.81930750	          9.34111162	
          0.44131234	        -15.21000130	          0.58147512	          0.88695652	         39.28820521	          2.07346716	        -15.04201284	        -11.75816049	         15.20668653	          9.26962020	          9.38506129	
